<?xml version="1.0" standalone="no"?>
<!DOCTYPE svg PUBLIC "-//W3C//DTD SVG 20010904//EN"
 "http://www.w3.org/TR/2001/REC-SVG-20010904/DTD/svg10.dtd">
<svg version="1.0" xmlns="http://www.w3.org/2000/svg"
 width="1024.000000pt" height="1024.000000pt" viewBox="0 0 1024.000000 1024.000000"
 preserveAspectRatio="xMidYMid meet">
<metadata>
Created by potrace 1.16, written by Peter Selinger 2001-2019
</metadata>
<g transform="translate(0.000000,1024.000000) scale(0.100000,-0.100000)"
fill="#000000" stroke="none">
<path d="M7672 7182 c-93 -14 -103 -18 -100 -36 2 -13 14 -23 34 -28 60 -15
59 -9 62 -393 4 -396 1 -420 -58 -431 -23 -5 -30 -12 -30 -30 l0 -24 180 0
180 0 0 24 c0 18 -7 25 -30 29 -16 4 -39 16 -50 27 -19 19 -20 31 -20 450 l0
430 -32 -1 c-18 -1 -79 -9 -136 -17z"/>
<path d="M2295 7143 c-44 -14 -152 -44 -240 -68 -185 -49 -691 -190 -852 -237
l-33 -10 0 -491 c-1 -1093 -3 -1050 57 -1227 134 -398 460 -724 1055 -1056
l117 -65 43 22 c140 71 373 215 498 307 395 293 590 566 667 932 16 77 18 152
18 834 l0 749 -140 39 c-237 65 -441 122 -865 243 -108 30 -207 54 -220 54
-14 -1 -61 -13 -105 -26z m156 -492 c36 -37 37 -73 4 -107 -24 -24 -25 -30
-19 -85 l7 -59 127 0 c109 0 139 -4 201 -24 69 -23 198 -56 220 -56 5 0 9 6 9
14 0 41 67 61 102 29 35 -32 9 -113 -37 -113 -8 0 -15 -3 -15 -6 0 -9 54 -157
98 -269 73 -185 152 -392 152 -397 0 -8 -52 0 -59 9 -4 4 -22 49 -40 98 -50
138 -150 405 -171 455 -12 29 -21 40 -24 30 -3 -8 -27 -73 -54 -145 -27 -71
-70 -186 -96 -255 -72 -192 -71 -190 -107 -190 -21 0 -30 4 -26 13 7 17 148
376 208 526 27 69 48 125 46 126 -5 5 -167 37 -252 51 -49 7 -123 14 -164 14
l-74 0 5 -37 5 -38 -97 3 -98 3 -7 36 -6 36 -107 -6 c-85 -5 -358 -50 -370
-62 -5 -4 172 -470 227 -598 27 -63 27 -67 -8 -67 -33 0 -29 -8 -181 404 l-74
200 -14 -35 c-13 -30 -76 -198 -184 -486 -30 -81 -31 -83 -64 -83 l-34 0 21
53 c96 238 239 604 239 612 0 3 -7 5 -15 5 -23 0 -55 37 -55 65 0 62 78 87
108 35 13 -23 22 -28 42 -24 70 14 120 28 170 47 44 16 86 21 208 25 104 3
152 8 153 16 0 6 4 33 8 61 8 43 6 52 -11 63 -46 33 -40 99 11 127 39 21 60
18 92 -14z m-1 -932 l0 -470 -52 3 -53 3 -3 468 -2 467 55 0 55 0 0 -471z
m-320 -184 c0 -16 -53 -86 -94 -123 -78 -72 -122 -87 -256 -87 -107 0 -119 2
-175 29 -32 16 -78 47 -102 69 -44 41 -85 101 -76 111 8 7 703 8 703 1z m1224
-17 c-17 -57 -84 -122 -165 -162 -165 -80 -415 -13 -497 132 -12 21 -19 42
-15 46 3 3 159 6 345 6 l339 0 -7 -22z m-839 -388 l0 -55 -80 -1 c-44 0 -99 2
-122 4 l-43 5 0 47 c0 26 3 50 7 54 4 3 59 5 122 4 l116 -3 0 -55z m104 -104
c12 -11 21 -30 21 -43 l0 -23 -245 0 c-240 0 -245 0 -245 20 0 12 11 32 25 46
l26 25 198 -3 c179 -3 201 -5 220 -22z m155 -111 c9 -9 20 -34 26 -56 6 -22
14 -47 17 -55 5 -12 -51 -14 -416 -14 -231 1 -421 2 -421 4 0 1 7 25 16 52 30
90 0 84 405 84 309 0 360 -2 373 -15z"/>
<path d="M4000 7126 c0 -17 9 -24 45 -34 25 -7 49 -20 55 -32 7 -14 10 -133 8
-369 -3 -326 -4 -350 -22 -370 -10 -11 -34 -23 -52 -27 -27 -5 -34 -11 -34
-30 l0 -24 198 0 c109 0 201 3 204 6 15 14 -6 43 -37 48 -59 11 -66 29 -72
185 -6 141 0 171 31 171 9 0 170 -207 294 -377 l23 -33 140 0 139 0 0 29 c0
23 -5 30 -28 34 -47 9 -247 231 -368 408 -40 58 -44 69 -33 85 23 34 253 246
293 270 22 12 57 26 78 29 32 6 38 11 38 31 l0 24 -178 0 -178 0 -2 -25 c-1
-14 2 -25 6 -26 47 -5 72 -16 72 -33 0 -20 -117 -163 -230 -280 l-97 -100 4
185 c3 101 6 190 8 196 2 7 25 18 50 24 37 9 45 15 45 35 l0 24 -200 -1 c-200
-1 -200 -1 -200 -23z"/>
<path d="M5215 6904 c-48 -7 -117 -35 -153 -61 -60 -45 -80 -115 -42 -153 44
-44 111 -8 123 66 8 51 36 76 85 78 76 2 112 -49 112 -156 l0 -47 -52 -14
c-29 -9 -82 -23 -118 -31 -145 -36 -227 -148 -190 -260 37 -112 183 -134 329
-48 32 19 46 22 49 13 2 -7 15 -24 27 -39 20 -23 30 -27 74 -26 52 2 129 34
158 66 16 17 16 20 0 36 -14 14 -21 14 -37 4 -31 -19 -59 -15 -65 11 -2 12 -6
119 -7 237 -3 209 -4 216 -27 249 -42 58 -157 91 -266 75z m128 -436 c-1 -102
-10 -116 -85 -139 -92 -29 -157 46 -113 131 18 35 56 63 115 83 85 30 85 30
83 -75z"/>
<path d="M6067 6886 c-32 -13 -76 -36 -98 -50 -21 -14 -41 -26 -44 -26 -3 0
-5 21 -5 46 l0 46 -47 -7 c-27 -5 -82 -13 -123 -19 -70 -10 -75 -13 -78 -37
-3 -22 2 -27 38 -38 l40 -12 1 -62 c8 -412 6 -424 -54 -429 -22 -2 -27 -7 -27
-30 l0 -28 175 0 175 0 0 24 c0 19 -7 25 -34 30 -59 11 -61 18 -61 244 l0 204
49 26 c67 35 128 35 164 -2 l27 -26 0 -204 c0 -221 -2 -229 -56 -241 -21 -5
-29 -12 -29 -29 0 -22 1 -22 175 -23 l175 -1 0 24 c0 19 -5 24 -24 24 -13 0
-34 9 -47 19 -24 19 -24 21 -24 222 l0 203 48 30 c36 22 61 30 98 30 45 1 54
-3 80 -32 l29 -32 0 -193 c0 -213 -4 -230 -61 -242 -24 -5 -29 -11 -27 -28 3
-21 7 -22 181 -23 l177 -1 0 23 c0 19 -5 24 -24 24 -14 0 -38 11 -53 24 l-28
24 -5 235 c-5 218 -7 238 -26 264 -27 38 -99 73 -149 73 -48 -1 -133 -34 -198
-79 -27 -18 -49 -31 -50 -29 -1 1 -9 16 -17 32 -39 75 -139 96 -243 52z"/>
<path d="M7100 6892 c-36 -9 -81 -26 -100 -38 -44 -25 -80 -78 -80 -115 0 -57
68 -90 103 -51 10 10 24 40 33 66 19 56 52 81 106 80 64 -2 86 -35 103 -155
l7 -46 -104 -26 c-125 -31 -165 -48 -208 -84 -42 -35 -60 -79 -60 -145 0 -151
156 -199 330 -102 24 14 46 21 48 15 2 -5 12 -21 23 -35 17 -22 28 -26 72 -26
52 0 126 26 159 57 15 14 16 17 2 38 -15 22 -16 23 -43 7 -15 -8 -35 -13 -44
-9 -15 6 -17 30 -17 225 0 206 -1 220 -22 262 -44 88 -168 120 -308 82z m170
-407 c0 -41 -4 -84 -9 -98 -12 -32 -52 -56 -105 -63 -39 -6 -48 -3 -70 19 -65
65 -10 170 108 206 33 10 64 17 69 14 4 -2 7 -37 7 -78z"/>
<path d="M6770 6070 c-113 -14 -125 -17 -128 -36 -3 -18 4 -22 38 -28 31 -5
43 -12 50 -32 6 -14 10 -169 10 -362 0 -368 -2 -382 -56 -382 -21 0 -25 -4
-22 -25 2 -14 6 -25 11 -25 4 0 75 0 157 0 150 0 150 0 150 23 0 17 -8 25 -32
32 -26 8 -34 17 -40 45 -4 19 -7 207 -6 418 0 210 -1 383 -3 385 -2 2 -60 -4
-129 -13z"/>
<path d="M4000 6005 c0 -21 5 -25 30 -25 17 0 39 -9 50 -20 20 -20 21 -30 18
-354 -3 -312 -4 -335 -22 -355 -11 -12 -31 -21 -48 -21 -23 0 -28 -4 -28 -25
l0 -25 313 0 c171 -1 323 -2 336 -3 24 -2 25 1 37 97 7 54 16 111 19 127 4 17
2 29 -3 29 -6 0 -17 3 -25 6 -11 4 -17 -3 -22 -25 -10 -47 -62 -117 -98 -132
-21 -9 -70 -14 -146 -13 -99 1 -116 3 -127 19 -11 15 -14 85 -14 335 0 269 2
319 16 338 8 12 24 22 34 22 32 0 50 11 50 31 0 18 -10 19 -185 19 l-185 0 0
-25z"/>
<path d="M7462 5960 c-68 -14 -111 -47 -138 -104 -13 -28 -24 -63 -24 -77 0
-37 26 -118 45 -139 15 -17 14 -19 -17 -38 -51 -32 -84 -72 -114 -135 -22 -50
-25 -67 -20 -110 9 -63 26 -96 70 -135 75 -66 209 -69 331 -8 l70 35 35 -34
35 -34 118 0 117 0 0 27 c0 25 -4 28 -36 30 -48 4 -80 22 -131 74 l-43 43 35
49 c18 26 44 77 57 113 27 76 57 113 93 113 21 0 25 5 25 30 0 28 -2 29 -37
26 -21 -2 -75 -4 -120 -5 -80 -1 -83 -2 -83 -25 0 -19 7 -25 36 -31 36 -6 36
-7 31 -47 -6 -41 -63 -168 -75 -168 -7 1 -175 196 -180 211 -2 4 14 17 36 28
78 40 121 114 108 184 -18 97 -111 150 -224 127z m113 -87 c33 -33 41 -82 21
-121 -17 -32 -74 -82 -95 -82 -19 0 -91 120 -91 152 0 18 10 38 26 53 43 40
97 39 139 -2z m-115 -369 c23 -30 71 -86 106 -123 60 -64 63 -69 46 -84 -45
-41 -141 -51 -193 -21 -49 30 -81 97 -77 165 4 57 36 119 62 119 8 0 33 -25
56 -56z"/>
<path d="M5582 5785 c-105 -25 -167 -103 -166 -210 0 -66 23 -123 68 -164 l26
-24 -33 -23 c-41 -28 -67 -65 -67 -97 0 -28 17 -45 68 -67 l36 -16 -41 -12
c-92 -27 -132 -126 -78 -190 37 -44 96 -63 212 -69 201 -11 349 53 398 171 32
76 -4 146 -97 186 -47 20 -64 22 -154 17 -132 -6 -216 20 -184 58 9 11 32 15
91 15 173 0 279 86 279 227 0 23 -4 53 -10 67 -9 25 -8 26 40 32 28 4 50 12
50 18 1 6 3 28 6 49 l6 37 -39 -1 c-21 0 -64 -4 -96 -8 -38 -5 -81 -3 -120 6
-76 16 -126 15 -195 -2z m135 -52 c49 -23 67 -68 65 -162 -3 -127 -59 -179
-147 -139 -87 40 -99 234 -18 298 31 24 54 25 100 3z m88 -577 c75 -19 100
-94 46 -139 -82 -69 -276 -54 -316 24 -28 53 -13 106 32 120 18 6 213 1 238
-5z"/>
<path d="M6263 5790 c-109 -23 -183 -82 -183 -145 0 -37 21 -65 49 -65 31 0
68 38 75 74 13 70 98 100 149 52 18 -16 27 -38 32 -72 3 -27 8 -57 10 -66 4
-24 -6 -29 -109 -55 -160 -41 -226 -98 -234 -201 -4 -52 -1 -61 24 -91 35 -41
64 -53 139 -52 47 0 73 7 126 33 l67 34 15 -32 c11 -21 25 -33 45 -37 57 -12
182 40 182 75 0 23 -27 35 -43 19 -6 -6 -21 -11 -34 -11 -25 0 -26 9 -23 277
2 197 -38 254 -185 267 -33 3 -79 1 -102 -4z m137 -391 c0 -75 -2 -82 -28
-109 -56 -56 -147 -47 -165 16 -12 42 14 97 60 125 30 19 102 46 126 48 4 1 7
-35 7 -80z"/>
<path d="M4957 5774 c-71 -22 -150 -102 -172 -174 -24 -81 -29 -151 -15 -211
25 -106 69 -162 159 -202 61 -27 203 -21 277 12 64 28 108 72 100 98 -6 19 -9
18 -63 -9 -42 -21 -70 -28 -115 -28 -114 0 -175 62 -193 198 l-7 52 169 1 c92
1 179 4 193 8 60 16 18 177 -59 228 -67 45 -180 56 -274 27z m160 -66 c14 -14
25 -41 29 -68 l6 -46 -98 -12 c-136 -17 -128 -19 -120 29 14 87 60 133 125
124 19 -2 45 -15 58 -27z"/>
<path d="M4823 4942 c-76 -60 -30 -182 69 -182 74 0 117 70 88 144 -19 50
-112 73 -157 38z"/>
<path d="M4580 4940 c-84 -9 -291 -15 -452 -13 l-128 1 0 -24 c0 -18 7 -25 28
-30 57 -12 62 -16 70 -47 12 -44 13 -603 1 -648 -10 -39 -53 -67 -84 -55 -11
4 -15 -2 -15 -23 l0 -28 205 0 205 -1 0 24 c0 19 -5 24 -24 24 -38 0 -74 17
-86 41 -7 13 -13 77 -14 160 l-1 139 73 0 c98 0 138 -17 151 -67 6 -21 11 -44
11 -52 0 -8 6 -11 16 -7 9 3 22 6 30 6 11 0 14 29 14 165 l0 165 -29 0 c-26 0
-30 -5 -40 -45 -18 -70 -38 -85 -121 -86 -38 -1 -78 -2 -87 -3 -16 -1 -18 13
-18 139 -1 77 1 148 3 158 4 15 18 17 118 17 111 0 114 -1 147 -30 18 -16 42
-47 52 -70 14 -31 23 -40 39 -38 16 2 22 12 24 38 5 47 -8 200 -16 198 -4 0
-36 -4 -72 -8z"/>
<path d="M6610 4937 c-41 -4 -223 -7 -405 -5 l-330 4 3 -122 c3 -118 4 -123
25 -126 18 -2 27 8 53 64 18 36 43 73 55 82 27 17 118 33 166 28 l33 -3 -1
-331 c-1 -190 -5 -342 -11 -359 -10 -30 -37 -45 -88 -48 -14 -1 -20 -8 -20
-25 l0 -24 200 0 c110 0 200 3 201 6 0 4 2 15 4 24 2 12 -7 18 -36 23 -73 13
-74 17 -74 363 -1 167 1 320 3 339 l4 35 80 -4 c98 -6 122 -21 164 -106 37
-75 37 -75 63 -67 20 6 21 14 21 135 0 117 -2 129 -17 127 -10 -1 -52 -5 -93
-10z"/>
<path d="M6853 4691 c-40 -10 -88 -30 -107 -45 -71 -54 -69 -156 4 -156 36 0
63 28 79 80 22 73 94 93 152 42 28 -25 32 -35 36 -99 l5 -70 -73 -18 c-173
-42 -238 -78 -269 -148 -31 -69 -11 -147 48 -192 44 -33 150 -28 232 11 l65
31 20 -31 c18 -27 27 -31 75 -34 94 -5 184 43 161 87 -11 19 -13 19 -39 4 -16
-9 -36 -14 -45 -10 -15 6 -17 29 -17 209 -1 249 -13 293 -92 334 -45 23 -154
26 -235 5z m167 -392 c0 -44 -4 -88 -10 -98 -11 -22 -79 -51 -118 -51 -43 0
-72 33 -72 81 0 54 46 104 120 129 83 28 80 30 80 -61z"/>
<path d="M4915 4689 c-168 -23 -170 -23 -173 -47 -3 -17 2 -22 17 -22 12 0 30
-9 41 -20 19 -19 20 -33 20 -233 0 -195 -2 -215 -18 -230 -10 -10 -28 -17 -40
-17 -17 0 -22 -6 -22 -24 l0 -25 160 1 160 0 0 24 c0 19 -5 24 -24 24 -14 0
-32 7 -40 16 -17 17 -18 44 -16 382 1 100 0 181 -2 181 -2 -1 -30 -5 -63 -10z"/>
<path d="M5495 4685 c-21 -8 -58 -28 -82 -44 l-43 -31 0 40 c0 45 2 45 -100
30 -36 -5 -82 -10 -103 -12 -34 -2 -38 -5 -35 -26 2 -18 12 -28 38 -36 l35
-11 3 -217 c2 -207 1 -219 -18 -238 -11 -11 -29 -20 -40 -20 -15 0 -20 -7 -20
-25 l0 -24 160 0 160 -1 0 25 c0 17 -6 25 -18 25 -10 0 -28 7 -40 16 -21 15
-22 20 -22 209 l0 193 33 20 c74 46 152 46 193 1 17 -19 19 -41 22 -196 4
-197 -2 -230 -49 -240 -22 -4 -29 -11 -29 -28 0 -22 1 -22 165 -21 160 1 165
1 165 22 0 15 -9 23 -37 30 -57 14 -61 31 -63 251 0 106 -5 206 -11 221 -13
34 -46 70 -81 88 -34 18 -131 17 -183 -1z"/>
<path d="M7310 4667 c0 -17 9 -26 33 -35 18 -7 45 -24 59 -39 33 -36 168 -223
168 -234 0 -13 -157 -193 -182 -208 -13 -8 -36 -17 -53 -21 -23 -4 -31 -12
-33 -33 l-3 -27 134 0 134 0 -5 29 c-3 21 -11 31 -28 35 -13 4 -24 12 -24 19
0 15 97 143 105 140 15 -5 86 -127 83 -142 -2 -9 -15 -17 -31 -19 -23 -3 -27
-8 -27 -33 l0 -29 170 2 170 2 0 28 c0 23 -4 28 -25 28 -33 0 -86 56 -175 182
-39 54 -70 101 -70 104 0 2 35 45 77 95 79 95 122 129 161 129 17 0 22 6 22
25 l0 25 -125 -1 -125 0 0 -29 c0 -22 5 -29 23 -32 13 -2 22 -10 21 -19 -1
-17 -82 -129 -93 -129 -12 1 -92 131 -86 140 4 6 13 10 21 10 9 0 14 10 14 29
l0 29 -155 1 c-155 0 -155 0 -155 -22z"/>
<path d="M4098 3844 c-56 -30 -76 -119 -37 -167 11 -15 38 -31 62 -38 69 -18
97 -37 97 -64 0 -46 -77 -61 -124 -24 -25 20 -28 20 -52 4 -31 -20 -27 -33 16
-62 76 -52 222 -13 230 62 9 80 -8 101 -109 139 -58 23 -71 32 -71 50 0 12 5
27 12 34 18 18 79 15 100 -5 18 -16 20 -16 38 3 18 18 19 21 5 41 -28 40 -118
54 -167 27z"/>
<path d="M4588 3850 c-47 -14 -85 -48 -108 -96 -19 -37 -22 -57 -18 -109 10
-122 76 -180 197 -173 80 4 124 31 152 92 36 79 17 200 -39 249 -43 39 -124
55 -184 37z m134 -89 c27 -24 32 -36 36 -87 3 -50 0 -64 -20 -94 -40 -59 -125
-66 -173 -14 -44 47 -39 151 10 200 36 36 104 34 147 -5z"/>
<path d="M6755 3846 c-102 -44 -143 -178 -90 -289 30 -63 67 -82 160 -82 97 0
125 15 162 88 52 103 14 235 -80 278 -49 22 -109 24 -152 5z m140 -80 c36 -36
51 -97 36 -147 -18 -60 -54 -89 -108 -89 -36 0 -50 6 -73 28 -53 54 -49 167 7
212 37 29 107 27 138 -4z"/>
<path d="M7782 3843 c-45 -22 -65 -55 -65 -105 0 -34 6 -47 32 -70 17 -15 43
-30 58 -33 61 -13 93 -34 93 -59 0 -47 -76 -62 -124 -25 -25 20 -28 20 -52 4
-76 -50 98 -114 190 -70 42 20 56 47 56 105 0 48 -31 77 -118 108 -66 25 -78
39 -56 71 18 26 69 28 103 5 21 -15 24 -15 41 2 23 23 12 42 -37 67 -40 21
-79 21 -121 0z"/>
<path d="M5020 3666 c0 -158 2 -185 16 -190 9 -3 65 -6 125 -6 l109 0 0 30 c0
28 -3 30 -37 31 -21 0 -60 1 -88 2 -58 2 -53 -17 -54 185 l-1 132 -35 0 -35 0
0 -184z"/>
<path d="M5430 3713 c0 -159 12 -196 70 -226 47 -24 149 -19 187 9 41 31 51
75 52 222 l1 132 -35 0 -35 0 0 -140 c0 -127 -2 -142 -20 -160 -27 -27 -89
-27 -124 1 -26 20 -26 21 -26 160 l0 139 -35 0 -35 0 0 -137z"/>
<path d="M5895 3823 c0 -27 2 -28 61 -31 l61 -3 -5 -159 -4 -159 36 2 c41 2
38 -15 36 205 l-1 112 60 0 c51 0 61 3 66 20 3 11 3 24 0 30 -4 6 -67 10 -159
10 l-152 0 1 -27z"/>
<path d="M6380 3660 l0 -190 34 0 c33 0 35 2 38 38 2 20 2 106 0 190 l-3 152
-34 0 -35 0 0 -190z"/>
<path d="M7188 3662 l3 -189 34 -1 35 -1 1 52 c0 29 0 87 -1 130 -1 42 1 77 3
77 2 0 50 -58 107 -130 88 -112 106 -130 131 -130 l28 0 3 190 3 190 -39 0
-39 0 7 -137 c6 -118 5 -136 -7 -123 -8 8 -57 70 -111 138 -88 111 -99 122
-129 122 l-32 0 3 -188z"/>
<path d="M2280 3094 l0 -181 23 1 c22 1 22 2 25 182 l2 180 -25 0 -25 0 0
-182z"/>
<path d="M2451 3061 c-44 -114 -81 -209 -81 -213 0 -3 8 -8 18 -10 18 -5 60
92 177 403 4 11 0 18 -13 21 -17 5 -30 -20 -101 -201z"/>
<path d="M4322 3056 c-45 -116 -82 -214 -82 -218 0 -15 42 7 51 26 28 66 149
380 149 386 0 4 -8 10 -18 12 -15 4 -31 -28 -100 -206z"/>
<path d="M6400 3248 c-24 -57 -150 -394 -150 -400 0 -5 9 -8 19 -8 15 0 27 22
56 98 21 53 57 146 81 207 23 60 40 113 38 117 -10 16 -35 7 -44 -14z"/>
<path d="M1249 3143 c0 -65 -2 -142 -3 -170 -1 -29 1 -54 4 -54 3 -1 49 -3
103 -4 97 -3 97 -3 97 21 0 23 -2 24 -75 24 l-75 0 0 150 0 150 -25 0 -25 0
-1 -117z"/>
<path d="M2617 3253 c-2 -5 -3 -82 -2 -173 l1 -165 24 0 c24 0 25 3 28 73 l3
72 64 0 c63 0 65 1 65 25 0 24 -2 25 -65 25 l-65 0 0 50 0 50 65 0 c63 0 65 1
65 25 0 25 -1 25 -89 25 -50 0 -91 -3 -94 -7z"/>
<path d="M4470 3235 c0 -22 4 -25 40 -25 46 0 43 15 42 -175 l0 -121 29 -2 29
-2 0 150 0 150 40 0 c36 0 40 3 40 25 l0 25 -110 0 -110 0 0 -25z"/>
<path d="M6579 3233 c-50 -134 -114 -290 -122 -300 -11 -15 7 -24 37 -19 13 2
25 17 34 44 l14 42 72 0 72 0 14 -42 c12 -34 20 -42 43 -45 34 -5 37 -17 -46
195 -54 137 -62 152 -84 152 -16 0 -27 -8 -34 -27z"/>
<path d="M5450 3190 c0 -23 -4 -30 -20 -30 -13 0 -20 -7 -20 -20 0 -13 7 -20
20 -20 18 0 20 -7 20 -83 0 -103 13 -127 71 -127 32 0 39 3 39 20 0 14 -7 20
-24 20 -30 0 -36 16 -36 101 0 67 1 69 25 69 18 0 25 5 25 20 0 15 -7 20 -25
20 -21 0 -25 5 -25 30 0 25 -4 30 -25 30 -21 0 -25 -5 -25 -30z"/>
<path d="M8120 3190 c0 -25 -4 -30 -23 -30 -16 0 -23 -6 -23 -20 0 -14 7 -20
23 -20 22 0 23 -3 23 -89 0 -104 10 -121 71 -121 32 0 39 3 39 20 0 16 -7 20
-30 20 l-30 0 0 85 c0 84 0 85 25 85 18 0 25 5 25 20 0 15 -7 20 -25 20 -21 0
-25 5 -25 30 0 25 -4 30 -25 30 -21 0 -25 -5 -25 -30z"/>
<path d="M1540 3157 c-33 -17 -70 -74 -70 -109 0 -77 55 -138 126 -138 55 0
106 38 85 64 -12 14 -15 14 -38 -4 -14 -11 -36 -20 -49 -20 -25 0 -59 31 -67
61 -5 18 1 19 85 19 l89 0 -5 36 c-8 50 -22 71 -56 89 -35 18 -67 19 -100 2z"/>
<path d="M1802 3155 c-40 -17 -55 -52 -55 -129 0 -54 3 -62 32 -88 35 -31 90
-38 111 -13 7 8 17 15 22 15 12 0 1 -49 -14 -67 -12 -15 -84 -17 -93 -3 -11
18 -45 11 -45 -9 0 -34 85 -52 148 -30 50 17 62 57 62 203 l0 126 -25 0 c-14
0 -25 -4 -25 -9 0 -6 -12 -3 -27 5 -34 17 -49 17 -91 -1z m92 -48 c25 -19 33
-90 12 -122 -19 -28 -60 -34 -91 -11 -25 18 -26 97 0 126 21 23 53 26 79 7z"/>
<path d="M2046 3149 c-24 -19 -26 -23 -13 -37 13 -13 18 -13 38 2 13 9 31 16
41 16 22 0 48 -27 48 -51 0 -16 -7 -19 -44 -19 -87 0 -137 -78 -83 -128 28
-27 92 -30 119 -5 17 15 18 15 18 -1 0 -12 7 -16 22 -14 22 3 22 6 19 102 -1
54 -8 107 -14 117 -26 42 -108 52 -151 18z"/>
<path d="M3085 3162 c-10 -2 -29 -11 -42 -19 -21 -14 -23 -14 -23 1 0 9 -8 16
-20 16 -19 0 -20 -7 -20 -124 l0 -123 25 0 c24 0 25 1 25 74 0 97 18 132 66
133 35 0 44 -22 46 -115 3 -85 4 -88 26 -90 24 -2 24 -2 20 106 -1 59 -8 113
-14 119 -14 14 -65 27 -89 22z"/>
<path d="M3295 3160 c-34 -13 -48 -35 -31 -49 10 -9 21 -7 44 6 40 23 82 6 82
-32 0 -23 -4 -25 -40 -25 -79 0 -122 -43 -106 -106 12 -48 96 -62 142 -23 11
9 14 8 14 -5 0 -9 8 -16 20 -16 18 0 20 7 20 89 0 48 -5 102 -10 118 -16 46
-80 66 -135 43z"/>
<path d="M3588 3158 c-16 -6 -28 -14 -28 -19 0 -5 -4 -9 -10 -9 -5 0 -10 7
-10 15 0 8 -9 15 -20 15 -19 0 -20 -7 -20 -123 l0 -123 25 -2 c25 -2 25 -1 25
83 0 72 3 88 20 105 24 24 53 26 74 4 12 -12 16 -37 16 -105 l0 -90 25 4 c14
2 25 6 25 10 0 4 0 49 0 100 0 60 -5 99 -13 111 -16 22 -75 35 -109 24z"/>
<path d="M3823 3160 c-42 -17 -65 -68 -60 -134 3 -51 8 -63 35 -87 43 -39 111
-41 147 -4 14 13 25 28 25 33 0 19 -37 19 -59 1 -31 -25 -47 -24 -76 6 -65 64
3 189 74 138 25 -18 61 -20 61 -4 0 4 -11 18 -24 30 -27 25 -89 36 -123 21z"/>
<path d="M4054 3151 c-76 -46 -68 -201 12 -231 49 -19 103 -12 131 16 26 26
26 27 8 40 -16 12 -22 11 -40 -6 -30 -28 -69 -26 -94 6 -37 48 -30 54 64 54
l85 0 0 29 c0 92 -87 140 -166 92z"/>
<path d="M4728 3154 c-16 -8 -28 -21 -28 -30 0 -22 27 -28 45 -10 33 33 85 14
85 -31 0 -21 -5 -23 -44 -23 -81 0 -128 -69 -85 -124 16 -20 29 -26 61 -26 25
0 49 7 60 17 17 15 18 15 18 -1 0 -12 7 -16 21 -14 21 3 22 8 20 96 -1 52 -6
105 -11 118 -16 42 -90 57 -142 28z"/>
<path d="M5234 3164 c-12 -3 -29 -13 -38 -23 -15 -16 -15 -20 -2 -30 12 -10
20 -10 38 3 31 22 65 20 78 -3 19 -37 12 -51 -24 -51 -69 0 -116 -33 -116 -81
0 -41 31 -69 79 -69 22 0 46 7 55 15 17 17 30 20 21 5 -3 -5 -2 -10 4 -10 5 0
17 -3 26 -6 15 -6 17 4 13 104 -2 86 -7 115 -19 127 -17 17 -78 27 -115 19z"/>
<path d="M5758 3145 c-56 -38 -70 -111 -35 -183 15 -32 57 -52 108 -52 33 0
47 6 75 34 30 30 34 40 34 85 0 63 -20 105 -60 126 -42 22 -80 19 -122 -10z
m107 -40 c32 -31 34 -91 4 -129 -45 -57 -109 -17 -109 69 0 39 35 85 65 85 9
0 27 -11 40 -25z"/>
<path d="M6087 3159 c-16 -4 -35 -13 -43 -20 -11 -9 -14 -8 -14 5 0 9 -8 16
-20 16 -19 0 -20 -7 -20 -124 0 -122 0 -123 23 -122 21 1 22 6 27 89 5 93 18
117 61 117 38 0 49 -27 49 -118 0 -86 0 -87 25 -88 l25 -2 0 98 c0 82 -3 101
-20 122 -22 29 -53 38 -93 27z"/>
<path d="M6848 3154 c-74 -40 -78 -178 -6 -228 36 -25 104 -21 133 9 14 13 25
29 25 35 0 22 -32 22 -56 -1 -48 -45 -109 7 -100 86 3 21 13 45 22 52 24 17
64 16 84 -2 10 -9 25 -13 34 -9 28 11 17 33 -31 58 -39 20 -69 20 -105 0z"/>
<path d="M7094 3156 c-71 -31 -87 -163 -25 -218 46 -41 111 -40 154 4 l32 31
-23 10 c-18 8 -27 6 -45 -11 -44 -41 -93 -18 -103 49 -12 76 43 129 95 92 25
-19 61 -20 61 -3 0 13 -31 41 -57 51 -32 12 -52 11 -89 -5z"/>
<path d="M7333 3150 c-51 -30 -71 -93 -53 -161 15 -53 51 -79 111 -79 69 0
110 37 116 106 7 69 -16 120 -61 139 -47 20 -75 19 -113 -5z m98 -39 c49 -39
23 -161 -33 -161 -33 0 -57 19 -66 54 -13 46 -4 83 26 106 31 25 44 25 73 1z"/>
<path d="M7907 3151 c-29 -15 -37 -16 -37 -5 0 8 -10 14 -22 14 -23 0 -23 -1
-20 -124 l3 -123 25 0 c24 0 24 1 23 77 -1 82 9 115 41 125 54 17 70 -14 70
-136 0 -68 1 -69 26 -69 l26 0 -4 105 c-2 89 -6 107 -23 124 -31 29 -67 33
-108 12z"/>
<path d="M8303 3160 c-24 -10 -43 -39 -43 -67 0 -33 24 -54 80 -72 36 -12 56
-24 58 -36 7 -35 -57 -48 -90 -18 -15 13 -23 15 -36 6 -22 -13 -20 -24 12 -47
53 -40 157 -10 164 47 5 43 -14 64 -75 84 -43 15 -59 25 -61 40 -4 29 41 40
75 17 22 -14 27 -14 40 -1 13 13 11 17 -13 36 -28 22 -73 26 -111 11z"/>
<path d="M4965 3108 c19 -29 35 -59 35 -66 0 -7 -16 -38 -35 -68 -19 -30 -35
-57 -35 -59 0 -3 11 -5 25 -5 19 0 32 11 53 45 30 50 38 54 47 26 11 -36 46
-71 71 -71 13 0 24 2 24 5 0 2 -18 30 -40 61 -22 32 -40 62 -40 67 0 6 18 34
40 64 l41 53 -31 0 c-24 0 -35 -8 -56 -41 l-26 -42 -19 29 c-10 16 -19 35 -19
42 0 7 -14 12 -35 12 l-36 0 36 -52z"/>
<path d="M7560 3061 c0 -84 3 -102 21 -125 26 -33 88 -37 119 -6 l20 20 0 -21
c0 -15 5 -20 23 -17 21 3 22 7 25 126 l3 122 -30 0 -29 0 5 -65 c7 -78 -9
-122 -45 -132 -47 -11 -57 5 -60 106 -3 89 -3 91 -27 91 -25 0 -25 0 -25 -99z"/>
</g>
</svg>
